<?xml version="1.0" standalone="no"?>
<!DOCTYPE svg PUBLIC "-//W3C//DTD SVG 20010904//EN"
 "http://www.w3.org/TR/2001/REC-SVG-20010904/DTD/svg10.dtd">
<svg version="1.0" xmlns="http://www.w3.org/2000/svg"
 width="290.000000pt" height="422.000000pt" viewBox="0 0 290.000000 422.000000"
 preserveAspectRatio="xMidYMid meet">

<g transform="translate(0.000000,422.000000) scale(0.100000,-0.100000)"
fill="#000000" stroke="none">
<path d="M378 4040 c-121 -61 -159 -85 -163 -103 -3 -12 -5 -56 -3 -97 l3 -75
110 -57 c61 -31 113 -58 117 -60 4 -2 -3 -112 -15 -245 l-22 -242 -97 -46 -98
-45 0 -100 0 -100 81 -40 81 -41 -7 -52 c-9 -64 -184 -525 -219 -576 -14 -20
-30 -49 -35 -64 -8 -19 -11 -322 -11 -933 0 -794 2 -909 15 -942 21 -49 52
-81 100 -103 38 -18 94 -19 1235 -19 1141 0 1197 1 1235 19 48 22 79 54 100
103 13 33 15 148 15 946 l0 909 -26 49 c-22 44 -234 645 -234 665 0 5 32 25
70 44 l70 35 0 100 0 100 -88 41 -89 40 -19 252 -19 252 105 55 105 55 3 75
c2 41 0 85 -3 98 -4 17 -43 41 -171 105 l-165 82 -444 -225 -444 -225 -445
223 c-245 122 -452 222 -459 221 -6 0 -83 -36 -169 -79z m624 -227 l448 -228
158 80 c86 44 286 147 443 228 l286 147 112 -52 112 -53 -421 -210 c-339 -169
-422 -214 -427 -233 -3 -12 -1 -28 5 -35 6 -6 195 -104 421 -217 l411 -205
-105 -53 -106 -53 -444 226 -444 226 -450 -226 -451 -225 -105 52 -105 53 417
210 c229 115 422 218 428 228 6 11 7 23 0 35 -6 9 -196 109 -422 222 -227 113
-413 208 -413 211 0 4 182 95 199 98 2 1 206 -101 453 -226z m28 -346 l-28
-18 -356 178 -356 178 0 32 0 33 385 -192 384 -192 -29 -19z m1576 387 c-3 -9
-6 -23 -6 -33 0 -13 -89 -62 -349 -190 -321 -157 -351 -171 -375 -160 -14 7
-26 15 -26 18 0 6 739 380 754 380 4 1 5 -6 2 -15z m-227 -396 c6 -84 14 -174
17 -200 5 -38 3 -48 -8 -48 -8 0 -104 44 -213 98 l-199 98 195 101 c106 56
194 102 195 102 1 1 6 -68 13 -151z m-1569 2 l105 -53 -199 -98 c-110 -55
-201 -98 -203 -96 -1 2 5 90 14 195 l17 191 81 -43 c44 -24 127 -67 185 -96z
m1488 -630 l3 -32 -403 206 c-395 201 -403 206 -406 237 l-3 31 403 -205 c395
-201 403 -206 406 -237z m-888 405 c0 -23 -34 -42 -410 -230 -405 -202 -410
-205 -410 -177 0 26 19 36 403 229 221 111 405 202 410 202 4 1 7 -10 7 -24z
m481 -317 l437 -223 54 27 54 26 18 -231 c9 -128 19 -244 22 -259 l6 -28
-1031 0 c-641 0 -1031 4 -1031 9 0 48 44 449 51 468 7 19 14 23 27 18 70 -30
41 -41 507 193 242 122 442 221 444 221 2 1 201 -99 442 -221z m-1381 -88 l0
-30 -110 55 c-103 52 -110 57 -110 85 l0 30 110 -55 c103 -52 110 -57 110 -85z
m2090 105 c0 -22 -14 -32 -110 -80 l-110 -55 0 28 c0 25 9 32 103 79 56 29
105 52 110 52 4 1 7 -10 7 -24z m20 -697 c0 -4 -8 -8 -19 -8 -21 0 -31 36 -30
109 l0 46 25 -69 c13 -39 24 -74 24 -78z m-2300 27 c0 -24 -5 -35 -15 -35 -18
0 -18 -1 -4 39 14 40 19 39 19 -4z m2350 -113 c51 -25 70 -70 70 -169 l0 -83
-1290 0 -1290 0 0 83 c0 99 19 144 70 169 33 17 112 18 1220 18 1108 0 1187
-1 1220 -18z m68 -1102 c2 -878 6 -836 -68 -872 -33 -17 -112 -18 -1220 -18
-1108 0 -1187 1 -1220 18 -73 36 -70 -5 -70 868 0 429 3 784 7 787 3 4 583 6
1287 5 l1281 -3 3 -785z"/>
<path d="M302 2064 c-28 -19 -26 -51 3 -70 18 -12 24 -11 43 2 27 19 29 60 3
74 -25 13 -22 13 -49 -6z"/>
<path d="M450 2063 c-26 -18 -23 -50 6 -70 19 -12 24 -11 44 5 46 38 -1 99
-50 65z"/>
<path d="M600 2063 c-26 -18 -23 -50 6 -70 19 -12 24 -11 44 5 46 38 -1 99
-50 65z"/>
<path d="M317 1233 c-4 -3 -7 -82 -7 -175 l0 -168 35 0 35 0 0 65 0 65 46 0
c79 0 123 38 124 106 0 52 -28 90 -78 104 -41 11 -145 14 -155 3z m163 -82 c5
-11 10 -24 10 -30 0 -22 -33 -41 -71 -41 l-39 0 0 45 0 45 45 0 c34 0 47 -5
55 -19z"/>
<path d="M1740 1165 c0 -28 -4 -35 -20 -35 -16 0 -20 -7 -20 -30 0 -23 4 -30
20 -30 18 0 20 -7 20 -60 0 -70 13 -104 47 -119 50 -23 88 -8 78 31 -4 17 -13
24 -28 24 -20 -1 -22 5 -25 62 -3 61 -2 62 23 62 21 0 25 5 25 30 0 25 -4 30
-25 30 -22 0 -25 4 -25 35 0 33 -2 35 -35 35 -33 0 -35 -2 -35 -35z"/>
<path d="M975 1133 c-11 -3 -24 -9 -29 -14 -6 -5 -15 -4 -22 2 -7 6 -23 9 -36
7 -23 -3 -23 -3 -23 -173 l0 -170 30 0 c30 0 30 0 33 63 3 62 3 62 25 47 28
-19 51 -19 93 1 43 21 64 59 64 119 0 38 -6 51 -32 79 -33 34 -67 47 -103 39z
m49 -74 c47 -37 22 -119 -36 -119 -56 0 -82 92 -36 124 29 21 40 20 72 -5z"/>
<path d="M1265 1133 c-11 -3 -24 -9 -29 -14 -6 -5 -15 -4 -22 2 -7 6 -23 9
-36 7 -23 -3 -23 -3 -23 -173 l0 -170 30 0 c30 0 30 0 33 63 3 62 3 62 25 47
28 -19 51 -19 93 1 43 21 64 59 64 119 0 38 -6 51 -32 79 -33 34 -67 47 -103
39z m49 -74 c47 -37 22 -119 -36 -119 -56 0 -82 92 -36 124 29 21 40 20 72 -5z"/>
<path d="M1511 1122 c-104 -52 -102 -191 2 -231 47 -18 98 -8 131 26 l27 27
-26 14 c-23 12 -29 11 -44 -2 -22 -20 -65 -20 -85 0 -29 28 -17 34 69 34 l85
0 0 33 c0 49 -32 94 -77 106 -48 14 -42 14 -82 -7z m89 -57 c18 -22 9 -27 -51
-23 -50 3 -52 4 -35 21 22 21 69 22 86 2z"/>
<path d="M1971 1122 c-104 -52 -102 -191 2 -231 47 -18 98 -8 131 26 l27 27
-26 14 c-23 12 -29 11 -44 -2 -22 -20 -65 -20 -85 0 -29 28 -17 34 69 34 l85
0 0 33 c0 49 -32 94 -77 106 -48 14 -42 14 -82 -7z m89 -57 c18 -22 9 -27 -51
-23 -50 3 -52 4 -35 21 22 21 69 22 86 2z"/>
<path d="M2255 1133 c-81 -21 -119 -118 -75 -191 41 -66 136 -79 192 -25 l28
27 -26 14 c-22 12 -28 11 -43 -2 -30 -27 -101 -14 -101 19 0 12 17 15 85 15
l85 0 0 31 c0 34 -23 80 -49 96 -22 14 -71 22 -96 16z m71 -70 c17 -17 15 -18
-35 -21 -60 -4 -69 1 -51 23 17 20 64 19 86 -2z"/>
<path d="M2537 1121 c-30 -15 -37 -16 -37 -4 0 10 -9 13 -27 11 l-28 -3 -3
-117 -3 -118 36 0 35 0 0 71 c0 88 10 109 54 109 28 0 35 4 40 27 5 17 3 29
-6 34 -18 12 -19 12 -61 -10z"/>
<path d="M583 1115 c-11 -31 3 -173 20 -199 25 -37 80 -45 118 -17 23 17 29
19 29 6 0 -10 10 -15 30 -15 l30 0 0 121 0 120 -32 -3 -33 -3 -5 -83 c-5 -84
-14 -101 -50 -102 -31 0 -40 23 -40 107 l0 83 -30 0 c-18 0 -33 -6 -37 -15z"/>
</g>
</svg>
